<svg xmlns="http://www.w3.org/2000/svg" version="1.1" xmlns:xlink="http://www.w3.org/1999/xlink" xmlns:svgjs="http://svgjs.dev/svgjs" width="1000" height="1000" viewBox="0 0 1000 1000">
<rect width="1000" height="1000" fill="#282634"></rect>
<g transform="matrix(0.7,0,0,0.7,149.57575757575756,410.092248846762)">
<svg viewBox="0 0 396 102" data-background-color="#282634" preserveAspectRatio="xMidYMid meet" height="257" width="1000" xmlns="http://www.w3.org/2000/svg" xmlns:xlink="http://www.w3.org/1999/xlink">
<g id="tight-bounds" transform="matrix(1,0,0,1,0.2400000000000091,-0.023954321121294697)">
<svg viewBox="0 0 395.52 102.04783763126403" height="102.04783763126403" width="395.52">
<g>
<svg viewBox="0 0 565.1071474886494 145.80289854163752" height="102.04783763126403" width="395.52">
<g transform="matrix(1,0,0,1,0,52.75179496710987)"><svg viewBox="0 0 395.5199999999999 40.29930860741778" height="40.29930860741778" width="395.5199999999999"><g id="textblocktransform"><svg viewBox="0 0 395.5199999999999 40.29930860741778" height="40.29930860741778" width="395.5199999999999" id="textblock"><g><svg viewBox="0 0 395.5199999999999 40.29930860741778" height="40.29930860741778" width="395.5199999999999"><g transform="matrix(1,0,0,1,0,0)"><svg width="395.5199999999999" viewBox="1.149999976158142 -35.54999923706055 357.2200012207031 36.39999771118164" height="40.29930860741778" data-palette-color="#ff4057"><path d="M16.3 0.85Q8.9 0.85 5.03-3.83 1.15-8.5 1.15-17.4L1.15-17.4Q1.15-23.15 3.25-27.25 5.35-31.35 9.03-33.45 12.7-35.55 17.25-35.55L17.25-35.55Q20.8-35.55 23.43-34.43 26.05-33.3 28.25-31.25L28.25-31.25 23.95-26.8Q22.3-28.25 20.88-28.9 19.45-29.55 17.65-29.55L17.65-29.55Q13.9-29.55 11.75-26.58 9.6-23.6 9.6-17.35L9.6-17.35Q9.6-10.65 11.2-7.9 12.8-5.15 16.35-5.15L16.35-5.15Q18.7-5.15 20.65-6.2L20.65-6.2 20.65-14.15 16.3-14.15 15.5-19.85 28.4-19.85 28.4-2.65Q22.7 0.85 16.3 0.85L16.3 0.85ZM58.05-24.1Q58.05-20.6 56.17-18.23 54.3-15.85 51.15-14.6L51.15-14.6 60.2 0 50.9 0 43.4-13.25 41.1-13.25 41.1 0 32.9 0 32.9-34.65 43.8-34.65Q50.95-34.65 54.5-32.05 58.05-29.45 58.05-24.1L58.05-24.1ZM49.6-24.1Q49.6-26.6 48.17-27.75 46.75-28.9 43.8-28.9L43.8-28.9 41.1-28.9 41.1-18.9 44.15-18.9Q46.85-18.9 48.22-20.15 49.6-21.4 49.6-24.1L49.6-24.1ZM87.9-34.65L87.9-11.6Q87.9-8 86.45-5.18 85-2.35 82.09-0.75 79.2 0.85 75 0.85L75 0.85Q68.7 0.85 65.4-2.5 62.1-5.85 62.1-11.6L62.1-11.6 62.1-34.65 70.34-34.65 70.34-14.65Q70.34-11.3 70.7-9.3 71.05-7.3 72.07-6.28 73.09-5.25 75-5.25L75-5.25Q76.9-5.25 77.92-6.28 78.95-7.3 79.3-9.3 79.65-11.3 79.65-14.65L79.65-14.65 79.65-34.65 87.9-34.65ZM101.59-6.55L118.09-6.55 117.24 0 91.94 0 91.94-6.15 108.39-28.3 93.74-28.3 93.74-34.65 117.69-34.65 117.69-28.45 101.59-6.55ZM148.39-10.15Q148.39-6.9 146.69-4.4 144.99-1.9 141.81-0.53 138.64 0.85 134.29 0.85L134.29 0.85Q125.69 0.85 120.59-4.15L120.59-4.15 124.74-8.75Q128.69-5.25 134.09-5.25L134.09-5.25Q136.69-5.25 138.27-6.38 139.84-7.5 139.84-9.5L139.84-9.5Q139.84-11.4 138.52-12.48 137.19-13.55 133.59-14.65L133.59-14.65Q127.49-16.5 124.94-19 122.39-21.5 122.39-25.45L122.39-25.45Q122.39-28.55 124.12-30.85 125.84-33.15 128.81-34.35 131.79-35.55 135.44-35.55L135.44-35.55Q143.09-35.55 147.84-31.05L147.84-31.05 143.99-26.6Q142.24-28.05 140.22-28.78 138.19-29.5 136.04-29.5L136.04-29.5Q133.64-29.5 132.27-28.63 130.89-27.75 130.89-26.1L130.89-26.1Q130.89-25 131.52-24.25 132.14-23.5 133.59-22.85 135.04-22.2 137.94-21.3L137.94-21.3Q143.24-19.7 145.81-17.18 148.39-14.65 148.39-10.15L148.39-10.15ZM162.84-28.8L162.84-20.45 174.84-20.45 174.84-14.75 162.84-14.75 162.84-5.9 177.29-5.9 177.29 0 154.64 0 154.64-34.65 177.29-34.65 176.44-28.8 162.84-28.8ZM208.04-24.1Q208.04-20.6 206.16-18.23 204.29-15.85 201.14-14.6L201.14-14.6 210.19 0 200.89 0 193.39-13.25 191.09-13.25 191.09 0 182.89 0 182.89-34.65 193.79-34.65Q200.94-34.65 204.49-32.05 208.04-29.45 208.04-24.1L208.04-24.1ZM199.59-24.1Q199.59-26.6 198.16-27.75 196.74-28.9 193.79-28.9L193.79-28.9 191.09-28.9 191.09-18.9 194.14-18.9Q196.84-18.9 198.21-20.15 199.59-21.4 199.59-24.1L199.59-24.1ZM225.13-6.4L231.63-34.65 240.03-34.65 230.03 0 219.93 0 209.98-34.65 218.68-34.65 225.13-6.4ZM266.23-34.65L266.23-28.65 259.08-28.65 259.08-6.05 266.23-6.05 266.23 0 243.73 0 243.73-6.05 250.88-6.05 250.88-28.65 243.73-28.65 243.73-34.65 266.23-34.65ZM287.88-35.55Q291.48-35.55 294.08-34.6 296.68-33.65 298.98-31.75L298.98-31.75 294.98-26.9Q291.83-29.45 288.08-29.45L288.08-29.45Q284.53-29.45 282.35-26.45 280.18-23.45 280.18-17.4L280.18-17.4Q280.18-11.35 282.33-8.43 284.48-5.5 288.23-5.5L288.23-5.5Q290.53-5.5 292.18-6.3 293.83-7.1 295.73-8.6L295.73-8.6 299.43-3.85Q294.83 0.85 287.78 0.85L287.78 0.85Q283.03 0.85 279.4-1.25 275.78-3.35 273.73-7.48 271.68-11.6 271.68-17.4L271.68-17.4Q271.68-23.05 273.78-27.15 275.88-31.25 279.58-33.4 283.28-35.55 287.88-35.55L287.88-35.55ZM312.83-28.8L312.83-20.45 324.83-20.45 324.83-14.75 312.83-14.75 312.83-5.9 327.28-5.9 327.28 0 304.63 0 304.63-34.65 327.28-34.65 326.43-28.8 312.83-28.8ZM358.37-10.15Q358.37-6.9 356.67-4.4 354.97-1.9 351.8-0.53 348.62 0.85 344.27 0.85L344.27 0.85Q335.67 0.85 330.57-4.15L330.57-4.15 334.72-8.75Q338.67-5.25 344.07-5.25L344.07-5.25Q346.67-5.25 348.25-6.38 349.82-7.5 349.82-9.5L349.82-9.5Q349.82-11.4 348.5-12.48 347.17-13.55 343.57-14.65L343.57-14.65Q337.47-16.5 334.92-19 332.37-21.5 332.37-25.45L332.37-25.45Q332.37-28.55 334.1-30.85 335.82-33.15 338.8-34.35 341.77-35.55 345.42-35.55L345.42-35.55Q353.07-35.55 357.82-31.05L357.82-31.05 353.97-26.6Q352.22-28.05 350.2-28.78 348.17-29.5 346.02-29.5L346.02-29.5Q343.62-29.5 342.25-28.63 340.87-27.75 340.87-26.1L340.87-26.1Q340.87-25 341.5-24.25 342.12-23.5 343.57-22.85 345.02-22.2 347.92-21.3L347.92-21.3Q353.22-19.7 355.8-17.18 358.37-14.65 358.37-10.15L358.37-10.15Z" opacity="1" transform="matrix(1,0,0,1,0,0)" fill="#ff4057" class="undefined-text-0" data-fill-palette-color="primary" id="text-0"></path></svg></g></svg></g></svg></g></svg></g><g transform="matrix(1,0,0,1,419.30424894701184,0)"><svg viewBox="0 0 145.80289854163752 145.80289854163752" height="145.80289854163752" width="145.80289854163752"><g><svg viewBox="0 0 145.80289854163752 145.80289854163752" height="145.80289854163752" width="145.80289854163752"><g transform="matrix(1,0,0,1,38.53537651233674,40.22852314859687)"><svg viewBox="0 0 68.73214551696404 65.34585224444378" height="65.34585224444378" width="68.73214551696404"><g><svg xmlns="http://www.w3.org/2000/svg" xmlns:xlink="http://www.w3.org/1999/xlink" version="1.1" x="0" y="0" viewBox="-27.498998641967773 -25.038999557495117 100.0040054321289 95.07701110839844" enable-background="new -35 -35 115 115" xml:space="preserve" height="65.34585224444378" width="68.73214551696404" class="icon-s-0" data-fill-palette-color="accent" id="s-0"><path d="M34.292 36.742c0-1.402-0.1-2.771-0.296-4.113l4.343-2.582-0.091-0.412c-0.665-3.068-1.756-5.979-3.2-8.674l-0.21-0.391-4.84 1.109c-1.174-1.895-2.569-3.642-4.146-5.208l1.974-4.617-0.305-0.268c-2.3-1.987-4.862-3.667-7.634-4.978l-0.39-0.18-3.272 3.741c-2.131-0.84-4.383-1.432-6.73-1.74L8.381 3.561 7.959 3.532c-0.735-0.05-1.483-0.085-2.237-0.085-2.327 0-4.597 0.244-6.792 0.697l-0.422 0.082-0.449 4.981c-2.25 0.63-4.392 1.529-6.389 2.653l-3.736-3.272-0.365 0.241c-2.561 1.674-4.885 3.686-6.893 5.973l-0.274 0.316 2.581 4.322c-1.322 1.727-2.456 3.629-3.355 5.641l-4.937-0.445-0.146 0.406c-1.079 2.855-1.768 5.906-2.012 9.076l-0.032 0.404 4.649 1.988c-0.005 0.074-0.005 0.15-0.005 0.232 0 1.975 0.211 3.914 0.592 5.775l-4.259 2.535 0.108 0.422c0.843 3.105 2.113 6.021 3.76 8.697l0.213 0.346 4.944-1.117c1.079 1.488 2.292 2.883 3.636 4.145l-1.963 4.588 0.326 0.275c2.466 2.033 5.227 3.729 8.216 4.996l0.376 0.158 3.332-3.801c1.623 0.564 3.337 0.98 5.083 1.238l1.112 4.887 0.428 0.029c0.866 0.072 1.761 0.123 2.673 0.123 2.385 0 4.71-0.26 6.956-0.736l0.416-0.092 0.452-4.992c1.704-0.484 3.344-1.127 4.913-1.904l3.796 3.32 0.356-0.209c2.784-1.641 5.294-3.668 7.475-6.008l0.301-0.312-2.551-4.273c1.188-1.439 2.225-3.014 3.11-4.676l5.047 0.459 0.166-0.383c1.257-2.826 2.131-5.887 2.561-9.082l0.051-0.438-4.562-1.947C34.26 38.104 34.292 37.428 34.292 36.742zM14.48 36.742c0 4.84-3.92 8.758-8.757 8.764-4.843-0.006-8.756-3.924-8.763-8.764 0.007-4.838 3.918-8.748 8.763-8.762C10.561 27.994 14.48 31.904 14.48 36.742z" fill="#dcdcdc" data-fill-palette-color="accent"></path><path d="M71.705-7.785l-0.102-0.37-3.457-0.023c-0.485-1.429-1.142-2.804-1.927-4.08l2.074-2.829-0.212-0.296c-1.243-1.719-2.725-3.27-4.397-4.602l-0.301-0.242-2.821 2.021c-1.271-0.89-2.681-1.624-4.174-2.206l0.019-3.476L56.054-24c-0.502-0.147-0.996-0.291-1.519-0.417-1.58-0.375-3.166-0.565-4.732-0.617l-0.384-0.005-1.1 3.308c-1.576 0.073-3.139 0.333-4.631 0.759l-2.011-2.818-0.365 0.135c-2.015 0.724-3.919 1.723-5.661 2.967l-0.296 0.215 1.062 3.346c-1.137 0.944-2.177 2.007-3.087 3.202l-3.286-1.093-0.206 0.327c-1.189 1.771-2.151 3.733-2.826 5.849l-0.104 0.345 2.838 2.09c-0.015 0.03-0.021 0.062-0.026 0.087-0.318 1.33-0.48 2.648-0.526 3.957l-3.303 1.043 0.015 0.38c0.083 2.253 0.478 4.449 1.169 6.534l0.115 0.346 3.538 0.023c0.48 1.148 1.059 2.246 1.742 3.294l-2.065 2.799 0.229 0.301c1.361 1.779 2.958 3.382 4.795 4.712l0.296 0.215 2.861-2.044c0.984 0.617 2.038 1.149 3.143 1.59l-0.025 3.502 0.354 0.113c0.589 0.183 1.19 0.358 1.805 0.506 1.629 0.381 3.252 0.583 4.86 0.616l0.372 0.007 1.102-3.315c1.197-0.054 2.371-0.226 3.518-0.49l2.05 2.861 0.354-0.113c2.146-0.664 4.188-1.648 6.05-2.895l0.312-0.212-1.042-3.308c0.994-0.772 1.925-1.636 2.769-2.587l3.347 1.11 0.222-0.292c1.314-1.716 2.4-3.662 3.2-5.769l0.141-0.365-2.786-2.046c0.134-0.427 0.244-0.857 0.351-1.292 0.22-0.938 0.37-1.867 0.453-2.786l3.36-1.07v-0.364c0-0.133 0.009-0.265 0.009-0.404C72.5-3.813 72.228-5.841 71.705-7.785zM55.198-1.74c0 0.46-0.048 0.919-0.159 1.384-0.654 2.757-3.115 4.624-5.833 4.624-0.457 0-0.912-0.057-1.377-0.169-2.764-0.639-4.617-3.105-4.617-5.825 0-0.452 0.047-0.911 0.152-1.377 0.647-2.761 3.11-4.623 5.838-4.623 0.445 0 0.91 0.05 1.377 0.161C53.331-6.922 55.198-4.452 55.198-1.74z" fill="#dcdcdc" data-fill-palette-color="accent"></path></svg></g></svg></g><g><path d="M19.388 121.889C18.277 120.606 17.836 119.281 18.065 117.916 18.296 116.541 19.18 115.187 20.719 113.854V113.854C21.717 112.99 22.725 112.433 23.745 112.181 24.773 111.931 25.746 111.966 26.664 112.285 27.576 112.609 28.373 113.165 29.054 113.952V113.952C29.588 114.569 29.953 115.187 30.148 115.807 30.348 116.433 30.437 117.088 30.416 117.773V117.773L28.288 117.655C28.291 117.153 28.241 116.731 28.139 116.39 28.042 116.044 27.858 115.716 27.589 115.405V115.405C27.025 114.753 26.324 114.466 25.486 114.542 24.649 114.618 23.688 115.125 22.606 116.063V116.063C21.448 117.066 20.75 117.911 20.513 118.599 20.275 119.287 20.423 119.94 20.957 120.556V120.556C21.309 120.962 21.72 121.255 22.192 121.435V121.435L24.26 119.644 23.283 118.516 24.582 117.023 27.486 120.376 23.02 124.244C21.558 123.782 20.347 122.997 19.388 121.889ZM35.949 125.6C35.431 126.213 34.831 126.587 34.151 126.724 33.471 126.861 32.763 126.809 32.028 126.569V126.569L31.159 132.401 28.721 130.339 29.697 125.197 29.09 124.683 26.147 128.161 23.998 126.342 31.689 117.253 34.552 119.675C35.802 120.733 36.543 121.751 36.775 122.729 37.013 123.711 36.737 124.668 35.949 125.6ZM33.732 123.724C34.1 123.289 34.246 122.865 34.169 122.452 34.088 122.045 33.789 121.623 33.273 121.186V121.186L32.559 120.582 30.343 123.202 31.148 123.883C31.618 124.281 32.067 124.474 32.495 124.462 32.917 124.446 33.329 124.2 33.732 123.724ZM46.109 127.583L41.96 134.327C41.526 135.033 40.999 135.573 40.379 135.947 39.756 136.327 39.064 136.497 38.303 136.456 37.547 136.419 36.759 136.149 35.94 135.645V135.645C34.715 134.891 33.98 133.991 33.736 132.946 33.495 131.894 33.72 130.807 34.412 129.683V129.683L38.561 122.939 40.975 124.425 37.373 130.279C36.97 130.934 36.683 131.477 36.511 131.909 36.339 132.34 36.291 132.715 36.367 133.035 36.445 133.363 36.668 133.64 37.035 133.866V133.866C37.408 134.095 37.755 134.169 38.078 134.088 38.403 134.015 38.719 133.805 39.027 133.457 39.335 133.109 39.69 132.607 40.093 131.952V131.952L43.695 126.098ZM45.709 137.79L50.939 139.979 49.796 141.937 41.776 138.581 42.59 136.636 50.753 131.792 46.11 129.849 46.951 127.84 54.539 131.015 53.717 132.979ZM61.694 141.332C61.518 142.061 61.173 142.656 60.658 143.118 60.15 143.582 59.504 143.883 58.721 144.021 57.938 144.152 57.064 144.101 56.097 143.867V143.867C54.183 143.404 52.792 142.481 51.926 141.098V141.098L53.681 139.895C54.375 140.888 55.322 141.53 56.521 141.82V141.82C57.101 141.961 57.595 141.947 58.004 141.78 58.419 141.614 58.681 141.309 58.788 140.865V140.865C58.891 140.439 58.823 140.071 58.585 139.761 58.346 139.451 57.856 139.077 57.116 138.638V138.638C55.856 137.897 55.01 137.18 54.577 136.489 54.145 135.791 54.035 135.003 54.247 134.127V134.127C54.414 133.437 54.753 132.881 55.265 132.459 55.768 132.042 56.385 131.779 57.114 131.668 57.842 131.565 58.612 131.611 59.424 131.808V131.808C61.126 132.219 62.384 133.053 63.199 134.307V134.307L61.553 135.485C61.245 135.069 60.884 134.726 60.472 134.456 60.06 134.186 59.612 133.992 59.129 133.875V133.875C58.6 133.747 58.158 133.743 57.801 133.861 57.452 133.981 57.232 134.225 57.144 134.592V134.592C57.084 134.837 57.102 135.06 57.197 135.26 57.298 135.462 57.492 135.676 57.778 135.902 58.066 136.122 58.508 136.41 59.105 136.766V136.766C60.198 137.405 60.963 138.078 61.4 138.784 61.838 139.484 61.936 140.333 61.694 141.332ZM67.393 135.475L67.117 138.336 71.216 138.732 71.029 140.672 66.93 140.277 66.638 143.307 71.578 143.783 71.384 145.803 63.641 145.056 64.784 133.205 72.526 133.951 72.046 135.924ZM82.106 136.765C82.162 137.565 81.995 138.252 81.603 138.824 81.211 139.397 80.668 139.854 79.974 140.195V140.195L83.422 144.979 80.237 145.203 77.347 140.839 76.553 140.895 76.873 145.439 74.065 145.637 73.229 133.76 76.97 133.496C78.604 133.381 79.846 133.593 80.694 134.132 81.55 134.67 82.021 135.548 82.106 136.765ZM79.209 136.969C79.169 136.4 78.977 135.994 78.635 135.753 78.292 135.517 77.784 135.424 77.109 135.471V135.471L76.176 135.537 76.417 138.96 77.469 138.886C78.084 138.843 78.541 138.668 78.838 138.361 79.129 138.055 79.253 137.59 79.209 136.969ZM88.627 141.467L88.574 131.504 91.382 130.842 90.777 143.218 87.399 144.016 81.333 133.214 84.247 132.526ZM98.829 127.904L99.568 129.826 97.274 130.707 100.062 137.959 102.356 137.077 103.102 139.017 95.888 141.791 95.142 139.851 97.435 138.969 94.647 131.718 92.354 132.599 91.615 130.678ZM103.97 124.398C104.683 123.976 105.352 123.706 105.977 123.59 106.596 123.478 107.244 123.472 107.92 123.572V123.572L107.591 125.709C106.672 125.576 105.841 125.729 105.1 126.168V126.168C104.404 126.581 104.016 127.208 103.936 128.049 103.854 128.899 104.166 129.92 104.873 131.113V131.113C105.579 132.305 106.317 133.062 107.087 133.385 107.85 133.711 108.6 133.656 109.336 133.22V133.22C109.792 132.95 110.136 132.638 110.366 132.286 110.6 131.939 110.818 131.506 111.018 130.986V130.986L112.937 131.745C112.577 133.207 111.704 134.349 110.318 135.17V135.17C109.383 135.725 108.436 136.008 107.48 136.019 106.514 136.029 105.592 135.747 104.712 135.173 103.824 134.598 103.042 133.739 102.366 132.598V132.598C101.706 131.486 101.342 130.403 101.273 129.349 101.209 128.292 101.418 127.337 101.898 126.482 102.372 125.63 103.063 124.936 103.97 124.398ZM111.517 121.889L113.316 124.131 116.528 121.553 117.748 123.074 114.536 125.651 116.441 128.025 120.313 124.919 121.583 126.501 115.516 131.37 108.064 122.084 114.13 117.215 115.163 118.963ZM126.602 115.634C127.162 116.132 127.525 116.717 127.692 117.388 127.863 118.054 127.825 118.766 127.578 119.522 127.326 120.275 126.87 121.023 126.209 121.766V121.766C124.901 123.238 123.433 124.032 121.805 124.147V124.147L121.568 122.033C122.771 121.887 123.782 121.353 124.602 120.431V120.431C124.998 119.985 125.219 119.542 125.263 119.102 125.312 118.658 125.166 118.284 124.824 117.98V117.98C124.497 117.689 124.14 117.576 123.754 117.641 123.368 117.706 122.808 117.962 122.073 118.41V118.41C120.826 119.174 119.796 119.584 118.982 119.642 118.163 119.695 117.417 119.421 116.743 118.822V118.822C116.212 118.351 115.881 117.79 115.749 117.141 115.617 116.5 115.674 115.832 115.919 115.137 116.17 114.445 116.573 113.788 117.128 113.163V113.163C118.291 111.854 119.617 111.135 121.108 111.005V111.005L121.374 113.011C120.862 113.089 120.39 113.246 119.958 113.482 119.525 113.719 119.144 114.024 118.814 114.395V114.395C118.453 114.802 118.241 115.19 118.178 115.56 118.119 115.925 118.232 116.233 118.514 116.484V116.484C118.702 116.652 118.907 116.741 119.129 116.751 119.355 116.757 119.635 116.686 119.969 116.54 120.298 116.389 120.76 116.134 121.354 115.775V115.775C122.433 115.11 123.386 114.751 124.215 114.697 125.038 114.639 125.834 114.952 126.602 115.634Z" fill="#dcdcdc" data-fill-palette-color="accent"></path><path d="M27.257 31.773C26.149 32.997 24.915 33.58 23.555 33.521 22.205 33.462 20.792 32.764 19.317 31.429V31.429C18.368 30.57 17.71 29.662 17.343 28.704 16.981 27.741 16.901 26.796 17.104 25.871 17.306 24.945 17.748 24.106 18.429 23.354V23.354C18.959 22.769 19.515 22.342 20.098 22.073 20.676 21.81 21.3 21.65 21.968 21.593V21.593L22.107 23.664C21.621 23.716 21.217 23.811 20.895 23.949 20.574 24.087 20.277 24.306 20.006 24.606V24.606C19.445 25.226 19.25 25.935 19.421 26.734 19.593 27.542 20.195 28.414 21.228 29.348V29.348C22.334 30.349 23.236 30.924 23.933 31.073 24.631 31.221 25.244 31.003 25.774 30.418V30.418C26.126 30.029 26.36 29.593 26.476 29.108V29.108L24.507 27.326 23.533 28.402 21.937 27.32 24.833 24.119 29.104 27.984C28.829 29.453 28.214 30.716 27.257 31.773ZM31.856 16.51C32.351 17.116 32.602 17.754 32.609 18.424 32.621 19.1 32.444 19.77 32.08 20.435V20.435L37.518 22.302 35.105 24.27 30.351 22.423 29.757 22.907 32.562 26.345 30.434 28.08 23.103 19.093 25.932 16.785C27.165 15.779 28.272 15.248 29.254 15.192 30.234 15.146 31.102 15.585 31.856 16.51ZM29.667 18.295C29.315 17.864 28.934 17.648 28.524 17.649 28.113 17.65 27.654 17.858 27.145 18.273V18.273L26.444 18.845 28.563 21.443 29.349 20.801C29.817 20.42 30.083 20.023 30.149 19.61 30.209 19.201 30.048 18.763 29.667 18.295ZM39.049 8.034L43.001 14.665C43.412 15.354 43.639 16.052 43.683 16.76 43.732 17.464 43.569 18.136 43.194 18.777 42.819 19.417 42.23 19.976 41.427 20.455V20.455C40.22 21.175 39.108 21.401 38.092 21.135 37.076 20.868 36.24 20.185 35.585 19.085V19.085L31.633 12.455 34 11.044 37.427 16.795C37.811 17.438 38.151 17.931 38.446 18.271 38.742 18.612 39.046 18.825 39.359 18.909 39.674 18.984 40.013 18.912 40.378 18.695V18.695C40.743 18.478 40.964 18.215 41.042 17.905 41.123 17.587 41.083 17.217 40.924 16.795 40.759 16.376 40.485 15.844 40.102 15.201V15.201L36.674 9.45ZM47.807 14.543L52.93 12.459 53.487 14.595 45.646 17.784 44.87 15.877 47.17 6.931 42.627 8.778 41.829 6.815 49.256 3.795 50.035 5.712ZM62.191 9.059C62.358 9.769 62.322 10.439 62.082 11.067 61.841 11.696 61.411 12.24 60.79 12.7 60.171 13.166 59.387 13.511 58.438 13.734V13.734C56.573 14.174 54.956 13.978 53.589 13.149V13.149L54.591 11.329C55.629 11.889 56.735 12.03 57.91 11.753V11.753C58.472 11.621 58.895 11.392 59.179 11.066 59.465 10.747 59.556 10.368 59.453 9.929V9.929C59.356 9.516 59.138 9.226 58.799 9.061 58.454 8.897 57.862 8.787 57.025 8.733V8.733C55.601 8.645 54.55 8.392 53.872 7.973 53.19 7.561 52.747 6.926 52.545 6.068V6.068C52.387 5.397 52.436 4.765 52.692 4.173 52.949 3.588 53.37 3.091 53.955 2.68 54.538 2.264 55.226 1.962 56.02 1.775V1.775C57.686 1.383 59.15 1.556 60.414 2.294V2.294L59.497 4.042C59.042 3.816 58.576 3.673 58.099 3.615 57.624 3.564 57.15 3.594 56.679 3.705V3.705C56.163 3.826 55.775 4.016 55.516 4.275 55.264 4.538 55.18 4.848 55.264 5.203V5.203C55.32 5.442 55.436 5.629 55.611 5.765 55.784 5.894 56.046 5.993 56.396 6.06 56.746 6.128 57.256 6.185 57.928 6.231V6.231C59.165 6.307 60.126 6.555 60.811 6.972 61.501 7.389 61.962 8.084 62.191 9.059ZM66.279 2.403L66.541 5.186 70.542 4.81 70.72 6.702 66.719 7.078 66.996 10.029 71.809 9.577 71.994 11.547 64.448 12.256 63.363 0.709 70.909 0 70.805 1.978ZM82.1 4.251C82.047 5.032 81.794 5.669 81.341 6.163 80.888 6.664 80.301 7.033 79.58 7.269V7.269L82.273 12.349 79.167 12.136 76.96 7.538 76.195 7.486 75.892 11.912 73.153 11.724 73.946 0.153 77.588 0.403C79.176 0.511 80.347 0.881 81.102 1.511 81.849 2.147 82.182 3.06 82.1 4.251ZM79.282 4.058C79.32 3.502 79.189 3.085 78.889 2.805 78.589 2.525 78.112 2.363 77.457 2.318V2.318L76.554 2.256 76.325 5.6 77.337 5.67C77.939 5.711 78.405 5.603 78.735 5.347 79.058 5.09 79.241 4.66 79.282 4.058ZM86.92 11.361L91.162 2.63 93.905 3.26 88.04 13.813 84.744 13.055 84.094 1.005 86.935 1.658ZM103.015 6.602L102.311 8.484 100.066 7.645 97.418 14.726 99.664 15.565 98.953 17.466 91.891 14.826 92.601 12.925 94.847 13.765 97.494 6.684 95.248 5.844 95.952 3.962ZM110.524 10.431C111.219 10.83 111.765 11.266 112.159 11.737 112.56 12.212 112.875 12.76 113.107 13.383V13.383L111.143 14.125C110.815 13.286 110.285 12.657 109.555 12.237V12.237C108.87 11.844 108.152 11.818 107.398 12.157 106.639 12.494 105.924 13.246 105.254 14.413V14.413C104.58 15.586 104.291 16.575 104.387 17.379 104.474 18.187 104.88 18.798 105.605 19.214V19.214C106.053 19.472 106.48 19.614 106.886 19.64 107.297 19.67 107.771 19.644 108.307 19.562V19.562L108.584 21.556C107.173 21.962 105.784 21.772 104.415 20.986V20.986C103.495 20.457 102.802 19.788 102.335 18.976 101.868 18.165 101.665 17.246 101.728 16.219 101.787 15.197 102.14 14.123 102.787 12.996V12.996C103.415 11.903 104.16 11.078 105.024 10.519 105.888 9.96 106.796 9.678 107.747 9.673 108.707 9.666 109.632 9.919 110.524 10.431ZM116.866 17.492L115.154 19.702 118.332 22.162 117.168 23.665 113.991 21.204 112.176 23.548 115.998 26.508 114.786 28.073 108.794 23.432 115.895 14.262 121.888 18.903 120.46 20.275ZM123.804 32.932C123.269 33.428 122.669 33.727 122.004 33.829 121.338 33.931 120.652 33.825 119.946 33.513 119.235 33.205 118.548 32.693 117.885 31.979V31.979C116.581 30.574 115.952 29.072 115.998 27.474V27.474L118.075 27.446C118.102 28.625 118.525 29.656 119.346 30.541V30.541C119.739 30.964 120.147 31.219 120.571 31.305 120.99 31.396 121.364 31.288 121.695 30.981V30.981C122.006 30.692 122.15 30.36 122.126 29.983 122.098 29.602 121.901 29.034 121.535 28.279V28.279C120.907 26.998 120.608 25.959 120.638 25.163 120.659 24.366 120.992 23.667 121.638 23.067V23.067C122.144 22.598 122.717 22.329 123.358 22.259 123.994 22.193 124.635 22.314 125.28 22.619 125.93 22.92 126.533 23.37 127.088 23.968V23.968C128.252 25.222 128.825 26.581 128.808 28.044V28.044L126.835 28.111C126.807 27.603 126.7 27.128 126.515 26.684 126.325 26.246 126.065 25.849 125.736 25.494V25.494C125.375 25.105 125.018 24.862 124.665 24.764 124.312 24.676 124.001 24.756 123.734 25.004V25.004C123.554 25.171 123.448 25.364 123.417 25.583 123.39 25.798 123.434 26.074 123.548 26.412 123.662 26.749 123.865 27.221 124.156 27.828V27.828C124.701 28.942 124.961 29.899 124.936 30.701 124.915 31.507 124.538 32.251 123.804 32.932Z" fill="#dcdcdc" data-fill-palette-color="accent"></path><path d="M1.639 74.189c0-2.512 2.036-4.548 4.548-4.548 2.512 0 4.548 2.036 4.548 4.548 0 2.512-2.036 4.548-4.548 4.549-2.512 0-4.548-2.036-4.548-4.549zM135.068 74.189c0-2.512 2.036-4.548 4.548-4.548 2.512 0 4.548 2.036 4.548 4.548 0 2.512-2.036 4.548-4.548 4.549-2.512 0-4.548-2.036-4.548-4.549z" fill="#dcdcdc" data-fill-palette-color="accent"></path></g></svg></g></svg></g></svg></g><defs></defs></svg><rect width="395.52" height="102.04783763126403" fill="none" stroke="none" visibility="hidden"></rect></g></svg></g></svg>