<?xml version="1.0" encoding="UTF-8" standalone="no" ?>
<!DOCTYPE svg PUBLIC "-//W3C//DTD SVG 1.1//EN" "http://www.w3.org/Graphics/SVG/1.1/DTD/svg11.dtd">
<svg xmlns="http://www.w3.org/2000/svg" xmlns:xlink="http://www.w3.org/1999/xlink" version="1.1" width="500" height="500" viewBox="0 0 500 500" xml:space="preserve">
<desc>Created with Fabric.js 5.2.4</desc>
<defs>
</defs>
<rect x="0" y="0" width="100%" height="100%" fill="transparent"></rect>
<g transform="matrix(1 0 0 1 270 270)" id="81ab2dec-0629-4d82-af2b-b5060584cd0b"  >
<rect style="stroke: none; stroke-width: 1; stroke-dasharray: none; stroke-linecap: butt; stroke-dashoffset: 0; stroke-linejoin: miter; stroke-miterlimit: 4; fill: rgb(255,255,255); fill-rule: nonzero; opacity: 1; visibility: hidden;" vector-effect="non-scaling-stroke"  x="-540" y="-540" rx="0" ry="0" width="1080" height="1080" />
</g>
<g transform="matrix(1 0 0 1 270 270)" id="5c32957c-9f0f-4ab3-b36f-7b282aca25a0"  >
</g>
<g transform="matrix(1.37 0 0 1.37 215.79 270)" id="text-0"  >
<path style="stroke: none; stroke-width: 1; stroke-dasharray: none; stroke-linecap: butt; stroke-dashoffset: 0; stroke-linejoin: miter; stroke-miterlimit: 4; fill: rgb(255,64,87); fill-rule: nonzero; opacity: 1;" vector-effect="non-scaling-stroke"  transform=" translate(-179.76, 17.35)" d="M 16.3 0.85 Q 8.9 0.85 5.03 -3.83 Q 1.15 -8.5 1.15 -17.4 L 1.15 -17.4 Q 1.15 -23.15 3.25 -27.25 Q 5.35 -31.35 9.03 -33.45 Q 12.7 -35.55 17.25 -35.55 L 17.25 -35.55 Q 20.8 -35.55 23.43 -34.43 Q 26.05 -33.3 28.25 -31.25 L 28.25 -31.25 L 23.95 -26.8 Q 22.3 -28.25 20.88 -28.9 Q 19.45 -29.55 17.65 -29.55 L 17.65 -29.55 Q 13.9 -29.55 11.75 -26.58 Q 9.6 -23.6 9.6 -17.35 L 9.6 -17.35 Q 9.6 -10.65 11.2 -7.9 Q 12.8 -5.15 16.35 -5.15 L 16.35 -5.15 Q 18.7 -5.15 20.65 -6.2 L 20.65 -6.2 L 20.65 -14.15 L 16.3 -14.15 L 15.5 -19.85 L 28.4 -19.85 L 28.4 -2.65 Q 22.7 0.85 16.3 0.85 L 16.3 0.85 Z M 58.05 -24.1 Q 58.05 -20.6 56.17 -18.23 Q 54.3 -15.85 51.15 -14.6 L 51.15 -14.6 L 60.2 0 L 50.9 0 L 43.4 -13.25 L 41.1 -13.25 L 41.1 0 L 32.9 0 L 32.9 -34.65 L 43.8 -34.65 Q 50.95 -34.65 54.5 -32.05 Q 58.05 -29.45 58.05 -24.1 L 58.05 -24.1 Z M 49.6 -24.1 Q 49.6 -26.6 48.17 -27.75 Q 46.75 -28.9 43.8 -28.9 L 43.8 -28.9 L 41.1 -28.9 L 41.1 -18.9 L 44.15 -18.9 Q 46.85 -18.9 48.22 -20.15 Q 49.6 -21.4 49.6 -24.1 L 49.6 -24.1 Z M 87.9 -34.65 L 87.9 -11.6 Q 87.9 -8 86.45 -5.18 Q 85 -2.35 82.09 -0.75 Q 79.2 0.85 75 0.85 L 75 0.85 Q 68.7 0.85 65.4 -2.5 Q 62.1 -5.85 62.1 -11.6 L 62.1 -11.6 L 62.1 -34.65 L 70.34 -34.65 L 70.34 -14.65 Q 70.34 -11.3 70.7 -9.3 Q 71.05 -7.3 72.07 -6.28 Q 73.09 -5.25 75 -5.25 L 75 -5.25 Q 76.9 -5.25 77.92 -6.28 Q 78.95 -7.3 79.3 -9.3 Q 79.65 -11.3 79.65 -14.65 L 79.65 -14.65 L 79.65 -34.65 L 87.9 -34.65 Z M 101.59 -6.55 L 118.09 -6.55 L 117.24 0 L 91.94 0 L 91.94 -6.15 L 108.39 -28.3 L 93.74 -28.3 L 93.74 -34.65 L 117.69 -34.65 L 117.69 -28.45 L 101.59 -6.55 Z M 148.39 -10.15 Q 148.39 -6.9 146.69 -4.4 Q 144.99 -1.9 141.81 -0.53 Q 138.64 0.85 134.29 0.85 L 134.29 0.85 Q 125.69 0.85 120.59 -4.15 L 120.59 -4.15 L 124.74 -8.75 Q 128.69 -5.25 134.09 -5.25 L 134.09 -5.25 Q 136.69 -5.25 138.27 -6.38 Q 139.84 -7.5 139.84 -9.5 L 139.84 -9.5 Q 139.84 -11.4 138.52 -12.48 Q 137.19 -13.55 133.59 -14.65 L 133.59 -14.65 Q 127.49 -16.5 124.94 -19 Q 122.39 -21.5 122.39 -25.45 L 122.39 -25.45 Q 122.39 -28.55 124.12 -30.85 Q 125.84 -33.15 128.81 -34.35 Q 131.79 -35.55 135.44 -35.55 L 135.44 -35.55 Q 143.09 -35.55 147.84 -31.05 L 147.84 -31.05 L 143.99 -26.6 Q 142.24 -28.05 140.22 -28.78 Q 138.19 -29.5 136.04 -29.5 L 136.04 -29.5 Q 133.64 -29.5 132.27 -28.63 Q 130.89 -27.75 130.89 -26.1 L 130.89 -26.1 Q 130.89 -25 131.52 -24.25 Q 132.14 -23.5 133.59 -22.85 Q 135.04 -22.2 137.94 -21.3 L 137.94 -21.3 Q 143.24 -19.7 145.81 -17.18 Q 148.39 -14.65 148.39 -10.15 L 148.39 -10.15 Z M 162.84 -28.8 L 162.84 -20.45 L 174.84 -20.45 L 174.84 -14.75 L 162.84 -14.75 L 162.84 -5.9 L 177.29 -5.9 L 177.29 0 L 154.64 0 L 154.64 -34.65 L 177.29 -34.65 L 176.44 -28.8 L 162.84 -28.8 Z M 208.04 -24.1 Q 208.04 -20.6 206.16 -18.23 Q 204.29 -15.85 201.14 -14.6 L 201.14 -14.6 L 210.19 0 L 200.89 0 L 193.39 -13.25 L 191.09 -13.25 L 191.09 0 L 182.89 0 L 182.89 -34.65 L 193.79 -34.65 Q 200.94 -34.65 204.49 -32.05 Q 208.04 -29.45 208.04 -24.1 L 208.04 -24.1 Z M 199.59 -24.1 Q 199.59 -26.6 198.16 -27.75 Q 196.74 -28.9 193.79 -28.9 L 193.79 -28.9 L 191.09 -28.9 L 191.09 -18.9 L 194.14 -18.9 Q 196.84 -18.9 198.21 -20.15 Q 199.59 -21.4 199.59 -24.1 L 199.59 -24.1 Z M 225.13 -6.4 L 231.63 -34.65 L 240.03 -34.65 L 230.03 0 L 219.93 0 L 209.98 -34.65 L 218.68 -34.65 L 225.13 -6.4 Z M 266.23 -34.65 L 266.23 -28.65 L 259.08 -28.65 L 259.08 -6.05 L 266.23 -6.05 L 266.23 0 L 243.73 0 L 243.73 -6.05 L 250.88 -6.05 L 250.88 -28.65 L 243.73 -28.65 L 243.73 -34.65 L 266.23 -34.65 Z M 287.88 -35.55 Q 291.48 -35.55 294.08 -34.6 Q 296.68 -33.65 298.98 -31.75 L 298.98 -31.75 L 294.98 -26.9 Q 291.83 -29.45 288.08 -29.45 L 288.08 -29.45 Q 284.53 -29.45 282.35 -26.45 Q 280.18 -23.45 280.18 -17.4 L 280.18 -17.4 Q 280.18 -11.35 282.33 -8.43 Q 284.48 -5.5 288.23 -5.5 L 288.23 -5.5 Q 290.53 -5.5 292.18 -6.3 Q 293.83 -7.1 295.73 -8.6 L 295.73 -8.6 L 299.43 -3.85 Q 294.83 0.85 287.78 0.85 L 287.78 0.85 Q 283.03 0.85 279.4 -1.25 Q 275.78 -3.35 273.73 -7.48 Q 271.68 -11.6 271.68 -17.4 L 271.68 -17.4 Q 271.68 -23.05 273.78 -27.15 Q 275.88 -31.25 279.58 -33.4 Q 283.28 -35.55 287.88 -35.55 L 287.88 -35.55 Z M 312.83 -28.8 L 312.83 -20.45 L 324.83 -20.45 L 324.83 -14.75 L 312.83 -14.75 L 312.83 -5.9 L 327.28 -5.9 L 327.28 0 L 304.63 0 L 304.63 -34.65 L 327.28 -34.65 L 326.43 -28.8 L 312.83 -28.8 Z M 358.37 -10.15 Q 358.37 -6.9 356.67 -4.4 Q 354.97 -1.9 351.8 -0.53 Q 348.62 0.85 344.27 0.85 L 344.27 0.85 Q 335.67 0.85 330.57 -4.15 L 330.57 -4.15 L 334.72 -8.75 Q 338.67 -5.25 344.07 -5.25 L 344.07 -5.25 Q 346.67 -5.25 348.25 -6.38 Q 349.82 -7.5 349.82 -9.5 L 349.82 -9.5 Q 349.82 -11.4 348.5 -12.48 Q 347.17 -13.55 343.57 -14.65 L 343.57 -14.65 Q 337.47 -16.5 334.92 -19 Q 332.37 -21.5 332.37 -25.45 L 332.37 -25.45 Q 332.37 -28.55 334.1 -30.85 Q 335.82 -33.15 338.8 -34.35 Q 341.77 -35.55 345.42 -35.55 L 345.42 -35.55 Q 353.07 -35.55 357.82 -31.05 L 357.82 -31.05 L 353.97 -26.6 Q 352.22 -28.05 350.2 -28.78 Q 348.17 -29.5 346.02 -29.5 L 346.02 -29.5 Q 343.62 -29.5 342.25 -28.63 Q 340.87 -27.75 340.87 -26.1 L 340.87 -26.1 Q 340.87 -25 341.5 -24.25 Q 342.12 -23.5 343.57 -22.85 Q 345.02 -22.2 347.92 -21.3 L 347.92 -21.3 Q 353.22 -19.7 355.8 -17.18 Q 358.37 -14.65 358.37 -10.15 L 358.37 -10.15 Z" stroke-linecap="round" />
</g>
<g transform="matrix(0.85 0 0 0.85 392.035 276.065)"  >
<path style="stroke: none; stroke-width: 1; stroke-dasharray: none; stroke-linecap: butt; stroke-dashoffset: 0; stroke-linejoin: miter; stroke-miterlimit: 4; fill: rgb(220,220,220); fill-rule: nonzero; opacity: 1;" vector-effect="non-scaling-stroke"  transform=" translate(-5.64, -36.74)" d="M 34.292 36.742 C 34.292 35.339999999999996 34.192 33.971 33.996 32.629 L 38.339 30.046999999999997 L 38.248 29.634999999999998 C 37.583 26.566999999999997 36.492 23.656 35.047999999999995 20.961 L 34.837999999999994 20.57 L 29.997999999999994 21.679000000000002 C 28.823999999999995 19.784000000000002 27.428999999999995 18.037000000000003 25.851999999999993 16.471000000000004 L 27.825999999999993 11.854000000000003 L 27.520999999999994 11.586000000000002 C 25.220999999999993 9.599000000000002 22.658999999999992 7.919000000000002 19.886999999999993 6.608000000000002 L 19.496999999999993 6.428000000000003 L 16.224999999999994 10.169000000000002 C 14.093999999999994 9.329000000000002 11.841999999999995 8.737000000000002 9.494999999999994 8.429000000000002 L 8.381 3.561 L 7.959 3.532 C 7.223999999999999 3.482 6.475999999999999 3.447 5.7219999999999995 3.447 C 3.3949999999999996 3.447 1.1249999999999991 3.691 -1.0700000000000003 4.144 L -1.4920000000000002 4.226 L -1.9410000000000003 9.207 C -4.191000000000001 9.837000000000002 -6.333 10.736 -8.33 11.860000000000001 L -12.066 8.588000000000001 L -12.431000000000001 8.829 C -14.992 10.503 -17.316000000000003 12.515 -19.324 14.802 L -19.598000000000003 15.118 L -17.017000000000003 19.44 C -18.339000000000002 21.167 -19.473000000000003 23.069000000000003 -20.372000000000003 25.081000000000003 L -25.309000000000005 24.636000000000003 L -25.455000000000005 25.042 C -26.534000000000006 27.897000000000002 -27.223000000000006 30.948 -27.467000000000006 34.118 L -27.499000000000006 34.522000000000006 L -22.850000000000005 36.510000000000005 C -22.855000000000004 36.584 -22.855000000000004 36.660000000000004 -22.855000000000004 36.742000000000004 C -22.855000000000004 38.717000000000006 -22.644000000000005 40.656000000000006 -22.263000000000005 42.517 L -26.522000000000006 45.05200000000001 L -26.414000000000005 45.474000000000004 C -25.571000000000005 48.579 -24.301000000000005 51.495000000000005 -22.654000000000003 54.17100000000001 L -22.441000000000003 54.517 L -17.497000000000003 53.400000000000006 C -16.418000000000003 54.888000000000005 -15.205000000000004 56.28300000000001 -13.861000000000004 57.545 L -15.824000000000005 62.133 L -15.498000000000005 62.408 C -13.032000000000004 64.441 -10.271000000000004 66.137 -7.282000000000005 67.404 L -6.906000000000005 67.562 L -3.574000000000005 63.760999999999996 C -1.9510000000000052 64.32499999999999 -0.23700000000000498 64.741 1.508999999999995 64.999 L 2.620999999999995 69.886 L 3.048999999999995 69.91499999999999 C 3.914999999999995 69.987 4.809999999999995 70.038 5.721999999999995 70.038 C 8.106999999999996 70.038 10.431999999999995 69.77799999999999 12.677999999999995 69.30199999999999 L 13.093999999999996 69.21 L 13.545999999999996 64.21799999999999 C 15.249999999999996 63.73399999999999 16.889999999999997 63.09099999999999 18.458999999999996 62.31399999999999 L 22.254999999999995 65.63399999999999 L 22.610999999999997 65.42499999999998 C 25.394999999999996 63.783999999999985 27.904999999999998 61.756999999999984 30.086 59.41699999999998 L 30.386999999999997 59.10499999999998 L 27.836 54.83199999999998 C 29.023999999999997 53.39299999999998 30.061 51.81799999999998 30.945999999999998 50.15599999999998 L 35.992999999999995 50.61499999999998 L 36.15899999999999 50.23199999999998 C 37.41599999999999 47.40599999999998 38.28999999999999 44.34499999999998 38.71999999999999 41.14999999999998 L 38.770999999999994 40.711999999999975 L 34.208999999999996 38.76499999999997 C 34.26 38.104 34.292 37.428 34.292 36.742 z M 14.48 36.742 C 14.48 41.581999999999994 10.56 45.5 5.723000000000001 45.506 C 0.8800000000000008 45.5 -3.0329999999999995 41.582 -3.039999999999999 36.742000000000004 C -3.032999999999999 31.904000000000003 0.878000000000001 27.994000000000007 5.723000000000001 27.980000000000004 C 10.561 27.994 14.48 31.904 14.48 36.742 z" stroke-linecap="round" />
</g>
<g transform="matrix(0.85 0 0 0.85 410.515 259.74)"  >
<path style="stroke: none; stroke-width: 1; stroke-dasharray: none; stroke-linecap: butt; stroke-dashoffset: 0; stroke-linejoin: miter; stroke-miterlimit: 4; fill: rgb(220,220,220); fill-rule: nonzero; opacity: 1;" vector-effect="non-scaling-stroke"  transform=" translate(-49.2, 1.73)" d="M 71.705 -7.785 L 71.603 -8.155 L 68.146 -8.177999999999999 C 67.661 -9.607 67.004 -10.982 66.219 -12.258 L 68.29299999999999 -15.087 L 68.08099999999999 -15.383 C 66.838 -17.102 65.356 -18.653 63.68399999999999 -19.985 L 63.38299999999999 -20.227 L 60.56199999999999 -18.206 C 59.29099999999999 -19.096 57.88099999999999 -19.83 56.38799999999999 -20.412 L 56.40699999999999 -23.887999999999998 L 56.054 -24 C 55.552 -24.147 55.058 -24.291 54.535000000000004 -24.417 C 52.955000000000005 -24.792 51.36900000000001 -24.982000000000003 49.803000000000004 -25.034000000000002 L 49.419000000000004 -25.039 L 48.319 -21.731 C 46.743 -21.658 45.18 -21.398000000000003 43.688 -20.972 L 41.677 -23.790000000000003 L 41.312 -23.655 C 39.297 -22.931 37.393 -21.932000000000002 35.650999999999996 -20.688000000000002 L 35.355 -20.473000000000003 L 36.416999999999994 -17.127000000000002 C 35.279999999999994 -16.183000000000003 34.239999999999995 -15.120000000000003 33.32999999999999 -13.925000000000002 L 30.04399999999999 -15.018000000000002 L 29.83799999999999 -14.691000000000003 C 28.64899999999999 -12.920000000000002 27.68699999999999 -10.958000000000002 27.01199999999999 -8.842000000000002 L 26.90799999999999 -8.497000000000002 L 29.74599999999999 -6.407000000000002 C 29.73099999999999 -6.377000000000002 29.72499999999999 -6.3450000000000015 29.71999999999999 -6.320000000000002 C 29.40199999999999 -4.990000000000002 29.23999999999999 -3.672000000000002 29.193999999999992 -2.363000000000002 L 25.89099999999999 -1.3200000000000023 L 25.90599999999999 -0.9400000000000023 C 25.98899999999999 1.312999999999998 26.383999999999993 3.5089999999999977 27.074999999999992 5.593999999999998 L 27.18999999999999 5.939999999999998 L 30.72799999999999 5.962999999999997 C 31.20799999999999 7.110999999999997 31.786999999999992 8.208999999999998 32.46999999999999 9.256999999999998 L 30.40499999999999 12.055999999999997 L 30.63399999999999 12.356999999999998 C 31.99499999999999 14.135999999999997 33.59199999999999 15.738999999999997 35.42899999999999 17.068999999999996 L 35.72499999999999 17.283999999999995 L 38.585999999999984 15.239999999999995 C 39.569999999999986 15.856999999999996 40.62399999999998 16.388999999999996 41.728999999999985 16.829999999999995 L 41.703999999999986 20.331999999999994 L 42.057999999999986 20.444999999999993 C 42.646999999999984 20.627999999999993 43.24799999999998 20.802999999999994 43.862999999999985 20.950999999999993 C 45.49199999999998 21.331999999999994 47.11499999999999 21.533999999999992 48.722999999999985 21.566999999999993 L 49.094999999999985 21.573999999999995 L 50.19699999999998 18.258999999999993 C 51.393999999999984 18.204999999999995 52.567999999999984 18.032999999999994 53.71499999999998 17.768999999999995 L 55.76499999999998 20.629999999999995 L 56.11899999999998 20.516999999999996 C 58.26499999999998 19.852999999999994 60.30699999999998 18.868999999999996 62.168999999999976 17.621999999999996 L 62.48099999999997 17.409999999999997 L 61.43899999999997 14.101999999999997 C 62.43299999999997 13.329999999999997 63.36399999999997 12.465999999999998 64.20799999999997 11.514999999999997 L 67.55499999999996 12.624999999999996 L 67.77699999999996 12.332999999999997 C 69.09099999999995 10.616999999999997 70.17699999999996 8.670999999999996 70.97699999999996 6.5639999999999965 L 71.11799999999997 6.198999999999996 L 68.33199999999997 4.152999999999997 C 68.46599999999997 3.725999999999997 68.57599999999996 3.2959999999999967 68.68299999999996 2.860999999999997 C 68.90299999999996 1.9229999999999972 69.05299999999997 0.9939999999999971 69.13599999999997 0.07499999999999707 L 72.49599999999997 -0.995000000000003 L 72.49599999999997 -1.359000000000003 C 72.49599999999997 -1.492000000000003 72.50499999999997 -1.6240000000000032 72.50499999999997 -1.763000000000003 C 72.5 -3.813 72.228 -5.841 71.705 -7.785 z M 55.198 -1.74 C 55.198 -1.28 55.15 -0.821 55.039 -0.3560000000000001 C 54.385 2.401 51.924 4.268 49.206 4.268 C 48.749 4.268 48.294000000000004 4.210999999999999 47.829 4.099 C 45.065 3.46 43.212 0.9940000000000002 43.212 -1.726 C 43.212 -2.178 43.259 -2.637 43.364000000000004 -3.1029999999999998 C 44.011 -5.864 46.474000000000004 -7.726 49.202000000000005 -7.726 C 49.647000000000006 -7.726 50.112 -7.676 50.57900000000001 -7.565 C 53.331 -6.922 55.198 -4.452 55.198 -1.74 z" stroke-linecap="round" />
</g>
<g transform="matrix(1.23 0 0 1.23 399.19 304.28)"  >
<path style="stroke: none; stroke-width: 1; stroke-dasharray: none; stroke-linecap: butt; stroke-dashoffset: 0; stroke-linejoin: miter; stroke-miterlimit: 4; fill: rgb(220,220,220); fill-rule: nonzero; opacity: 1;" vector-effect="non-scaling-stroke"  transform=" translate(-72.9, -128.4)" d="M 19.388 121.889 C 18.277 120.606 17.836 119.281 18.065 117.916 C 18.296 116.541 19.18 115.187 20.719 113.854 L 20.719 113.854 C 21.717 112.99 22.725 112.433 23.745 112.181 C 24.773 111.931 25.746 111.966 26.664 112.285 C 27.576 112.609 28.373 113.165 29.054 113.952 L 29.054 113.952 C 29.588 114.569 29.953 115.187 30.148 115.807 C 30.348 116.433 30.437 117.088 30.416 117.773 L 30.416 117.773 L 28.288 117.655 C 28.291 117.153 28.241 116.731 28.139 116.39 C 28.042 116.044 27.858 115.716 27.589 115.405 L 27.589 115.405 C 27.025 114.753 26.324 114.466 25.486 114.542 C 24.649 114.618 23.688 115.125 22.606 116.063 L 22.606 116.063 C 21.448 117.066 20.75 117.911 20.513 118.599 C 20.275 119.287 20.423 119.94 20.957 120.556 L 20.957 120.556 C 21.309 120.962 21.72 121.255 22.192 121.435 L 22.192 121.435 L 24.26 119.644 L 23.283 118.516 L 24.582 117.023 L 27.486 120.376 L 23.02 124.244 C 21.558 123.782 20.347 122.997 19.388 121.889 Z M 35.949 125.6 C 35.431 126.213 34.831 126.587 34.151 126.724 C 33.471 126.861 32.763 126.809 32.028 126.569 L 32.028 126.569 L 31.159 132.401 L 28.721 130.339 L 29.697 125.197 L 29.09 124.683 L 26.147 128.161 L 23.998 126.342 L 31.689 117.253 L 34.552 119.675 C 35.802 120.733 36.543 121.751 36.775 122.729 C 37.013 123.711 36.737 124.668 35.949 125.6 Z M 33.732 123.724 C 34.1 123.289 34.246 122.865 34.169 122.452 C 34.088 122.045 33.789 121.623 33.273 121.186 L 33.273 121.186 L 32.559 120.582 L 30.343 123.202 L 31.148 123.883 C 31.618 124.281 32.067 124.474 32.495 124.462 C 32.917 124.446 33.329 124.2 33.732 123.724 Z M 46.109 127.583 L 41.96 134.327 C 41.526 135.033 40.999 135.573 40.379 135.947 C 39.756 136.327 39.064 136.497 38.303 136.456 C 37.547 136.419 36.759 136.149 35.94 135.645 L 35.94 135.645 C 34.715 134.891 33.98 133.991 33.736 132.946 C 33.495 131.894 33.72 130.807 34.412 129.683 L 34.412 129.683 L 38.561 122.939 L 40.975 124.425 L 37.373 130.279 C 36.97 130.934 36.683 131.477 36.511 131.909 C 36.339 132.34 36.291 132.715 36.367 133.035 C 36.445 133.363 36.668 133.64 37.035 133.866 L 37.035 133.866 C 37.408 134.095 37.755 134.169 38.078 134.088 C 38.403 134.015 38.719 133.805 39.027 133.457 C 39.335 133.109 39.69 132.607 40.093 131.952 L 40.093 131.952 L 43.695 126.098 Z M 45.709 137.79 L 50.939 139.979 L 49.796 141.937 L 41.776 138.581 L 42.59 136.636 L 50.753 131.792 L 46.11 129.849 L 46.951 127.84 L 54.539 131.015 L 53.717 132.979 Z M 61.694 141.332 C 61.518 142.061 61.173 142.656 60.658 143.118 C 60.15 143.582 59.504 143.883 58.721 144.021 C 57.938 144.152 57.064 144.101 56.097 143.867 L 56.097 143.867 C 54.183 143.404 52.792 142.481 51.926 141.098 L 51.926 141.098 L 53.681 139.895 C 54.375 140.888 55.322 141.53 56.521 141.82 L 56.521 141.82 C 57.101 141.961 57.595 141.947 58.004 141.78 C 58.419 141.614 58.681 141.309 58.788 140.865 L 58.788 140.865 C 58.891 140.439 58.823 140.071 58.585 139.761 C 58.346 139.451 57.856 139.077 57.116 138.638 L 57.116 138.638 C 55.856 137.897 55.01 137.18 54.577 136.489 C 54.145 135.791 54.035 135.003 54.247 134.127 L 54.247 134.127 C 54.414 133.437 54.753 132.881 55.265 132.459 C 55.768 132.042 56.385 131.779 57.114 131.668 C 57.842 131.565 58.612 131.611 59.424 131.808 L 59.424 131.808 C 61.126 132.219 62.384 133.053 63.199 134.307 L 63.199 134.307 L 61.553 135.485 C 61.245 135.069 60.884 134.726 60.472 134.456 C 60.06 134.186 59.612 133.992 59.129 133.875 L 59.129 133.875 C 58.6 133.747 58.158 133.743 57.801 133.861 C 57.452 133.981 57.232 134.225 57.144 134.592 L 57.144 134.592 C 57.084 134.837 57.102 135.06 57.197 135.26 C 57.298 135.462 57.492 135.676 57.778 135.902 C 58.066 136.122 58.508 136.41 59.105 136.766 L 59.105 136.766 C 60.198 137.405 60.963 138.078 61.4 138.784 C 61.838 139.484 61.936 140.333 61.694 141.332 Z M 67.393 135.475 L 67.117 138.336 L 71.216 138.732 L 71.029 140.672 L 66.93 140.277 L 66.638 143.307 L 71.578 143.783 L 71.384 145.803 L 63.641 145.056 L 64.784 133.205 L 72.526 133.951 L 72.046 135.924 Z M 82.106 136.765 C 82.162 137.565 81.995 138.252 81.603 138.824 C 81.211 139.397 80.668 139.854 79.974 140.195 L 79.974 140.195 L 83.422 144.979 L 80.237 145.203 L 77.347 140.839 L 76.553 140.895 L 76.873 145.439 L 74.065 145.637 L 73.229 133.76 L 76.97 133.496 C 78.604 133.381 79.846 133.593 80.694 134.132 C 81.55 134.67 82.021 135.548 82.106 136.765 Z M 79.209 136.969 C 79.169 136.4 78.977 135.994 78.635 135.753 C 78.292 135.517 77.784 135.424 77.109 135.471 L 77.109 135.471 L 76.176 135.537 L 76.417 138.96 L 77.469 138.886 C 78.084 138.843 78.541 138.668 78.838 138.361 C 79.129 138.055 79.253 137.59 79.209 136.969 Z M 88.627 141.467 L 88.574 131.504 L 91.382 130.842 L 90.777 143.218 L 87.399 144.016 L 81.333 133.214 L 84.247 132.526 Z M 98.829 127.904 L 99.568 129.826 L 97.274 130.707 L 100.062 137.959 L 102.356 137.077 L 103.102 139.017 L 95.888 141.791 L 95.142 139.851 L 97.435 138.969 L 94.647 131.718 L 92.354 132.599 L 91.615 130.678 Z M 103.97 124.398 C 104.683 123.976 105.352 123.706 105.977 123.59 C 106.596 123.478 107.244 123.472 107.92 123.572 L 107.92 123.572 L 107.591 125.709 C 106.672 125.576 105.841 125.729 105.1 126.168 L 105.1 126.168 C 104.404 126.581 104.016 127.208 103.936 128.049 C 103.854 128.899 104.166 129.92 104.873 131.113 L 104.873 131.113 C 105.579 132.305 106.317 133.062 107.087 133.385 C 107.85 133.711 108.6 133.656 109.336 133.22 L 109.336 133.22 C 109.792 132.95 110.136 132.638 110.366 132.286 C 110.6 131.939 110.818 131.506 111.018 130.986 L 111.018 130.986 L 112.937 131.745 C 112.577 133.207 111.704 134.349 110.318 135.17 L 110.318 135.17 C 109.383 135.725 108.436 136.008 107.48 136.019 C 106.514 136.029 105.592 135.747 104.712 135.173 C 103.824 134.598 103.042 133.739 102.366 132.598 L 102.366 132.598 C 101.706 131.486 101.342 130.403 101.273 129.349 C 101.209 128.292 101.418 127.337 101.898 126.482 C 102.372 125.63 103.063 124.936 103.97 124.398 Z M 111.517 121.889 L 113.316 124.131 L 116.528 121.553 L 117.748 123.074 L 114.536 125.651 L 116.441 128.025 L 120.313 124.919 L 121.583 126.501 L 115.516 131.37 L 108.064 122.084 L 114.13 117.215 L 115.163 118.963 Z M 126.602 115.634 C 127.162 116.132 127.525 116.717 127.692 117.388 C 127.863 118.054 127.825 118.766 127.578 119.522 C 127.326 120.275 126.87 121.023 126.209 121.766 L 126.209 121.766 C 124.901 123.238 123.433 124.032 121.805 124.147 L 121.805 124.147 L 121.568 122.033 C 122.771 121.887 123.782 121.353 124.602 120.431 L 124.602 120.431 C 124.998 119.985 125.219 119.542 125.263 119.102 C 125.312 118.658 125.166 118.284 124.824 117.98 L 124.824 117.98 C 124.497 117.689 124.14 117.576 123.754 117.641 C 123.368 117.706 122.808 117.962 122.073 118.41 L 122.073 118.41 C 120.826 119.174 119.796 119.584 118.982 119.642 C 118.163 119.695 117.417 119.421 116.743 118.822 L 116.743 118.822 C 116.212 118.351 115.881 117.79 115.749 117.141 C 115.617 116.5 115.674 115.832 115.919 115.137 C 116.17 114.445 116.573 113.788 117.128 113.163 L 117.128 113.163 C 118.291 111.854 119.617 111.135 121.108 111.005 L 121.108 111.005 L 121.374 113.011 C 120.862 113.089 120.39 113.246 119.958 113.482 C 119.525 113.719 119.144 114.024 118.814 114.395 L 118.814 114.395 C 118.453 114.802 118.241 115.19 118.178 115.56 C 118.119 115.925 118.232 116.233 118.514 116.484 L 118.514 116.484 C 118.702 116.652 118.907 116.741 119.129 116.751 C 119.355 116.757 119.635 116.686 119.969 116.54 C 120.298 116.389 120.76 116.134 121.354 115.775 L 121.354 115.775 C 122.433 115.11 123.386 114.751 124.215 114.697 C 125.038 114.639 125.834 114.952 126.602 115.634 Z" stroke-linecap="round" />
</g>
<g transform="matrix(1.23 0 0 1.23 399.19 235.475)"  >
<path style="stroke: none; stroke-width: 1; stroke-dasharray: none; stroke-linecap: butt; stroke-dashoffset: 0; stroke-linejoin: miter; stroke-miterlimit: 4; fill: rgb(220,220,220); fill-rule: nonzero; opacity: 1;" vector-effect="non-scaling-stroke"  transform=" translate(-72.9, -16.93)" d="M 27.257 31.773 C 26.149 32.997 24.915 33.58 23.555 33.521 C 22.205 33.462 20.792 32.764 19.317 31.429 L 19.317 31.429 C 18.368 30.57 17.71 29.662 17.343 28.704 C 16.981 27.741 16.901 26.796 17.104 25.871 C 17.306 24.945 17.748 24.106 18.429 23.354 L 18.429 23.354 C 18.959 22.769 19.515 22.342 20.098 22.073 C 20.676 21.81 21.3 21.65 21.968 21.593 L 21.968 21.593 L 22.107 23.664 C 21.621 23.716 21.217 23.811 20.895 23.949 C 20.574 24.087 20.277 24.306 20.006 24.606 L 20.006 24.606 C 19.445 25.226 19.25 25.935 19.421 26.734 C 19.593 27.542 20.195 28.414 21.228 29.348 L 21.228 29.348 C 22.334 30.349 23.236 30.924 23.933 31.073 C 24.631 31.221 25.244 31.003 25.774 30.418 L 25.774 30.418 C 26.126 30.029 26.36 29.593 26.476 29.108 L 26.476 29.108 L 24.507 27.326 L 23.533 28.402 L 21.937 27.32 L 24.833 24.119 L 29.104 27.984 C 28.829 29.453 28.214 30.716 27.257 31.773 Z M 31.856 16.51 C 32.351 17.116 32.602 17.754 32.609 18.424 C 32.621 19.1 32.444 19.77 32.08 20.435 L 32.08 20.435 L 37.518 22.302 L 35.105 24.27 L 30.351 22.423 L 29.757 22.907 L 32.562 26.345 L 30.434 28.08 L 23.103 19.093 L 25.932 16.785 C 27.165 15.779 28.272 15.248 29.254 15.192 C 30.234 15.146 31.102 15.585 31.856 16.51 Z M 29.667 18.295 C 29.315 17.864 28.934 17.648 28.524 17.649 C 28.113 17.65 27.654 17.858 27.145 18.273 L 27.145 18.273 L 26.444 18.845 L 28.563 21.443 L 29.349 20.801 C 29.817 20.42 30.083 20.023 30.149 19.61 C 30.209 19.201 30.048 18.763 29.667 18.295 Z M 39.049 8.034 L 43.001 14.665 C 43.412 15.354 43.639 16.052 43.683 16.76 C 43.732 17.464 43.569 18.136 43.194 18.777 C 42.819 19.417 42.23 19.976 41.427 20.455 L 41.427 20.455 C 40.22 21.175 39.108 21.401 38.092 21.135 C 37.076 20.868 36.24 20.185 35.585 19.085 L 35.585 19.085 L 31.633 12.455 L 34 11.044 L 37.427 16.795 C 37.811 17.438 38.151 17.931 38.446 18.271 C 38.742 18.612 39.046 18.825 39.359 18.909 C 39.674 18.984 40.013 18.912 40.378 18.695 L 40.378 18.695 C 40.743 18.478 40.964 18.215 41.042 17.905 C 41.123 17.587 41.083 17.217 40.924 16.795 C 40.759 16.376 40.485 15.844 40.102 15.201 L 40.102 15.201 L 36.674 9.45 Z M 47.807 14.543 L 52.93 12.459 L 53.487 14.595 L 45.646 17.784 L 44.87 15.877 L 47.17 6.931 L 42.627 8.778 L 41.829 6.815 L 49.256 3.795 L 50.035 5.712 Z M 62.191 9.059 C 62.358 9.769 62.322 10.439 62.082 11.067 C 61.841 11.696 61.411 12.24 60.79 12.7 C 60.171 13.166 59.387 13.511 58.438 13.734 L 58.438 13.734 C 56.573 14.174 54.956 13.978 53.589 13.149 L 53.589 13.149 L 54.591 11.329 C 55.629 11.889 56.735 12.03 57.91 11.753 L 57.91 11.753 C 58.472 11.621 58.895 11.392 59.179 11.066 C 59.465 10.747 59.556 10.368 59.453 9.929 L 59.453 9.929 C 59.356 9.516 59.138 9.226 58.799 9.061 C 58.454 8.897 57.862 8.787 57.025 8.733 L 57.025 8.733 C 55.601 8.645 54.55 8.392 53.872 7.973 C 53.19 7.561 52.747 6.926 52.545 6.068 L 52.545 6.068 C 52.387 5.397 52.436 4.765 52.692 4.173 C 52.949 3.588 53.37 3.091 53.955 2.68 C 54.538 2.264 55.226 1.962 56.02 1.775 L 56.02 1.775 C 57.686 1.383 59.15 1.556 60.414 2.294 L 60.414 2.294 L 59.497 4.042 C 59.042 3.816 58.576 3.673 58.099 3.615 C 57.624 3.564 57.15 3.594 56.679 3.705 L 56.679 3.705 C 56.163 3.826 55.775 4.016 55.516 4.275 C 55.264 4.538 55.18 4.848 55.264 5.203 L 55.264 5.203 C 55.32 5.442 55.436 5.629 55.611 5.765 C 55.784 5.894 56.046 5.993 56.396 6.06 C 56.746 6.128 57.256 6.185 57.928 6.231 L 57.928 6.231 C 59.165 6.307 60.126 6.555 60.811 6.972 C 61.501 7.389 61.962 8.084 62.191 9.059 Z M 66.279 2.403 L 66.541 5.186 L 70.542 4.81 L 70.72 6.702 L 66.719 7.078 L 66.996 10.029 L 71.809 9.577 L 71.994 11.547 L 64.448 12.256 L 63.363 0.709 L 70.909 0 L 70.805 1.978 Z M 82.1 4.251 C 82.047 5.032 81.794 5.669 81.341 6.163 C 80.888 6.664 80.301 7.033 79.58 7.269 L 79.58 7.269 L 82.273 12.349 L 79.167 12.136 L 76.96 7.538 L 76.195 7.486 L 75.892 11.912 L 73.153 11.724 L 73.946 0.153 L 77.588 0.403 C 79.176 0.511 80.347 0.881 81.102 1.511 C 81.849 2.147 82.182 3.06 82.1 4.251 Z M 79.282 4.058 C 79.32 3.502 79.189 3.085 78.889 2.805 C 78.589 2.525 78.112 2.363 77.457 2.318 L 77.457 2.318 L 76.554 2.256 L 76.325 5.6 L 77.337 5.67 C 77.939 5.711 78.405 5.603 78.735 5.347 C 79.058 5.09 79.241 4.66 79.282 4.058 Z M 86.92 11.361 L 91.162 2.63 L 93.905 3.26 L 88.04 13.813 L 84.744 13.055 L 84.094 1.005 L 86.935 1.658 Z M 103.015 6.602 L 102.311 8.484 L 100.066 7.645 L 97.418 14.726 L 99.664 15.565 L 98.953 17.466 L 91.891 14.826 L 92.601 12.925 L 94.847 13.765 L 97.494 6.684 L 95.248 5.844 L 95.952 3.962 Z M 110.524 10.431 C 111.219 10.83 111.765 11.266 112.159 11.737 C 112.56 12.212 112.875 12.76 113.107 13.383 L 113.107 13.383 L 111.143 14.125 C 110.815 13.286 110.285 12.657 109.555 12.237 L 109.555 12.237 C 108.87 11.844 108.152 11.818 107.398 12.157 C 106.639 12.494 105.924 13.246 105.254 14.413 L 105.254 14.413 C 104.58 15.586 104.291 16.575 104.387 17.379 C 104.474 18.187 104.88 18.798 105.605 19.214 L 105.605 19.214 C 106.053 19.472 106.48 19.614 106.886 19.64 C 107.297 19.67 107.771 19.644 108.307 19.562 L 108.307 19.562 L 108.584 21.556 C 107.173 21.962 105.784 21.772 104.415 20.986 L 104.415 20.986 C 103.495 20.457 102.802 19.788 102.335 18.976 C 101.868 18.165 101.665 17.246 101.728 16.219 C 101.787 15.197 102.14 14.123 102.787 12.996 L 102.787 12.996 C 103.415 11.903 104.16 11.078 105.024 10.519 C 105.888 9.96 106.796 9.678 107.747 9.673 C 108.707 9.666 109.632 9.919 110.524 10.431 Z M 116.866 17.492 L 115.154 19.702 L 118.332 22.162 L 117.168 23.665 L 113.991 21.204 L 112.176 23.548 L 115.998 26.508 L 114.786 28.073 L 108.794 23.432 L 115.895 14.262 L 121.888 18.903 L 120.46 20.275 Z M 123.804 32.932 C 123.269 33.428 122.669 33.727 122.004 33.829 C 121.338 33.931 120.652 33.825 119.946 33.513 C 119.235 33.205 118.548 32.693 117.885 31.979 L 117.885 31.979 C 116.581 30.574 115.952 29.072 115.998 27.474 L 115.998 27.474 L 118.075 27.446 C 118.102 28.625 118.525 29.656 119.346 30.541 L 119.346 30.541 C 119.739 30.964 120.147 31.219 120.571 31.305 C 120.99 31.396 121.364 31.288 121.695 30.981 L 121.695 30.981 C 122.006 30.692 122.15 30.36 122.126 29.983 C 122.098 29.602 121.901 29.034 121.535 28.279 L 121.535 28.279 C 120.907 26.998 120.608 25.959 120.638 25.163 C 120.659 24.366 120.992 23.667 121.638 23.067 L 121.638 23.067 C 122.144 22.598 122.717 22.329 123.358 22.259 C 123.994 22.193 124.635 22.314 125.28 22.619 C 125.93 22.92 126.533 23.37 127.088 23.968 L 127.088 23.968 C 128.252 25.222 128.825 26.581 128.808 28.044 L 128.808 28.044 L 126.835 28.111 C 126.807 27.603 126.7 27.128 126.515 26.684 C 126.325 26.246 126.065 25.849 125.736 25.494 L 125.736 25.494 C 125.375 25.105 125.018 24.862 124.665 24.764 C 124.312 24.676 124.001 24.756 123.734 25.004 L 123.734 25.004 C 123.554 25.171 123.448 25.364 123.417 25.583 C 123.39 25.798 123.434 26.074 123.548 26.412 C 123.662 26.749 123.865 27.221 124.156 27.828 L 124.156 27.828 C 124.701 28.942 124.961 29.899 124.936 30.701 C 124.915 31.507 124.538 32.251 123.804 32.932 Z" stroke-linecap="round" />
</g>
<g transform="matrix(1.23 0 0 1.23 399.19 270.815)"  >
<path style="stroke: none; stroke-width: 1; stroke-dasharray: none; stroke-linecap: butt; stroke-dashoffset: 0; stroke-linejoin: miter; stroke-miterlimit: 4; fill: rgb(220,220,220); fill-rule: nonzero; opacity: 1;" vector-effect="non-scaling-stroke"  transform=" translate(-72.9, -74.19)" d="M 1.639 74.189 C 1.639 71.67699999999999 3.675 69.64099999999999 6.187 69.64099999999999 C 8.699 69.64099999999999 10.735 71.67699999999999 10.735 74.189 C 10.735 76.701 8.699 78.737 6.186999999999999 78.738 C 3.6749999999999994 78.738 1.6389999999999993 76.702 1.6389999999999993 74.189 z M 135.068 74.189 C 135.068 71.67699999999999 137.104 69.64099999999999 139.616 69.64099999999999 C 142.12800000000001 69.64099999999999 144.16400000000002 71.67699999999999 144.16400000000002 74.189 C 144.16400000000002 76.701 142.12800000000001 78.737 139.616 78.738 C 137.104 78.738 135.068 76.702 135.068 74.189 z" stroke-linecap="round" />
</g>
</svg>